<svg xmlns="http://www.w3.org/2000/svg" width="262.953" height="104" viewBox="0 0 262.953 104">
  <g id="Group_1" data-name="Group 1" transform="translate(-122.36 398.809)">
    <path id="Path_1" data-name="Path 1" d="M153.547-474.493a1.944,1.944,0,0,1,.251.775c0,.461.272.419.587-.084s.67-.377.67.23c0,.23.1.356.21.293.126-.063.314.126.44.461.189.524.251.545.419.21.314-.545.608-.419.608.272,0,.775.251.817.629.1.4-.733.587-.65.733.251.272,1.592.314,1.634.712,1.027.461-.691.65-.5.65.65,0,.482.084.9.21.9a.225.225,0,0,0,.21-.21.2.2,0,0,1,.21-.21c.1,0,.21.524.21,1.173,0,1.069.042,1.152.419,1.027.23-.063.419-.063.419.042a4.624,4.624,0,0,1-1.55,2.053c-.545.419-.754.733-.754,1.152,0,.88-.189,1.236-.838,1.571-.754.4-1.634,2.493-1.236,2.954.377.461.712.356,1.257-.4a9.7,9.7,0,0,1,1.278-1.383l.8-.691.964.335a4.98,4.98,0,0,1,3.227,2.808,6.772,6.772,0,0,1,.419,1.425c0,.44-.566.608-1.173.335-.419-.21-.65-.147-1.446.335-.754.44-.943.65-.838.985.063.23.168.691.251,1.048a3.031,3.031,0,0,0,1.215,1.509,6.138,6.138,0,0,1,1.655,1.99c.524,1.027.629,1.11,1.613,1.341a2.1,2.1,0,0,0,1.634-.042,2.28,2.28,0,0,1,.775-.293,1.254,1.254,0,0,0,.608-.419,8.688,8.688,0,0,1,1.446-1.048,13.4,13.4,0,0,0,1.613-1.069c.524-.419.629-.419,1.739-.168a2.82,2.82,0,0,1,1.865,1.048c1.781,2.137,1.823,2.179,1.676,3-.168,1.006-.4,1.111-1.152.545a2.342,2.342,0,0,0-2.745-.251,8.3,8.3,0,0,1-1.613.964,20.911,20.911,0,0,0-2.808,1.907,7.268,7.268,0,0,1-2.556,1.592,2.6,2.6,0,0,0-1.048.419c-.168.293.9.23,2.808-.168,1.383-.293,1.823-.314,2.137-.1a21.024,21.024,0,0,0,4.023.461c5.594.335,6.411.419,6.956.629a9.467,9.467,0,0,1,2.87,2.116,7.033,7.033,0,0,1,.063,2.326c-.147,1.907-.147,1.907-1.131,3a23.473,23.473,0,0,0-2.7,4.5,40.558,40.558,0,0,1-2.891,4.945,7.175,7.175,0,0,0-1.613,3.52,14.1,14.1,0,0,1-1.655,4.044,13.946,13.946,0,0,0-1.194,2.43,1.9,1.9,0,0,1-.482.9c-1.11,1.3-2.011-.23-1.718-2.954.272-2.514.189-4.023-.293-4.8-.9-1.467-.4-3.5.943-3.813.712-.189.775-.272,1.341-1.886a18.8,18.8,0,0,1,.838-2.179,1.229,1.229,0,0,0,.021-1.09,4.335,4.335,0,0,1-.23-1.131c0-.608-.021-.608-1.006-.1a12.942,12.942,0,0,1-1.655.65,2.473,2.473,0,0,0-1.425,1.048,2.538,2.538,0,0,1-2.2,1.257c-.335,0-.67.084-.733.21a2.207,2.207,0,0,1-1.11.23c-.545,0-1.362.021-1.823.042a8.676,8.676,0,0,1-1.655-.126l-.817-.168.126.712a3.094,3.094,0,0,1-.5,1.949,4.86,4.86,0,0,0-.608,2.43,2.245,2.245,0,0,1-.629,1.928c-.629.712-.629.733-.5,2.451a19.338,19.338,0,0,1-.1,3.331,62.609,62.609,0,0,1-1.048,6.286,16.681,16.681,0,0,0-.377,2.535,6.208,6.208,0,0,0,.272,2.933,7.722,7.722,0,0,1,.356,2.6c-.021.8-.042,3.394-.042,5.762.021,4.19.021,4.316.524,4.945a4.955,4.955,0,0,1,.817,3.1c-.084.23-.335.922-.566,1.529-.4.964-.419,1.152-.147,1.781.4.964.314,4.442-.126,5.112-.335.524-1.027.671-1.278.272-.063-.126-.419-.168-.8-.1a1.271,1.271,0,0,1-1.069-.189,1.668,1.668,0,0,0-.8-.314,2.331,2.331,0,0,1-1.006-.67c-.712-.8-.712-1.027,0-4.777a16.975,16.975,0,0,0,.021-7.333c-.251-1.215-.629-3.269-.859-4.589a14.079,14.079,0,0,0-1.027-3.6,5.1,5.1,0,0,1-.44-3.73,15.917,15.917,0,0,0-.817-4.735,19.394,19.394,0,0,0-1.11-2.41,5.7,5.7,0,0,1-.943-3.457c-.084-1.53-.168-1.928-.482-2.158a2.291,2.291,0,0,1-.5-2.535,4.513,4.513,0,0,0,.1-2.954,27.846,27.846,0,0,1-.712-6.7l-.021-2.619-1.4-2.766a32.626,32.626,0,0,0-4.044-6.642,9.783,9.783,0,0,1-2.284-5.615,10.314,10.314,0,0,0-.985-3.541c-.608-1.215-.65-1.488-.691-3.75a8.383,8.383,0,0,1,.587-4.17,5.22,5.22,0,0,1,1.173-2.137,8.638,8.638,0,0,1,4.274-.817c2.284-.021,3.122-.251,3.876-1.069a1.537,1.537,0,0,0,.545-1.655,9.263,9.263,0,0,1,.5-3.248c.524-1.886.733-2.389,1.257-2.829a3.528,3.528,0,0,0,.859-1.131c.21-.566.251-.587.608-.251.5.461.587.419.733-.209.1-.419.251-.524.566-.44s.482-.042.691-.545C153.3-474.933,153.317-474.954,153.547-474.493Zm.272,5.992a11.277,11.277,0,0,0,2.347,1.194c.168,0,.566.335.859.733.314.4.65.733.775.733.356,0,.189-.608-.251-.838-.251-.147-.377-.377-.314-.545a.2.2,0,0,0-.21-.293c-.168,0-.377-.189-.461-.44-.147-.377-.21-.4-.44-.1-.23.272-.335.272-.985-.147-.377-.251-.712-.608-.712-.775,0-.251-.063-.23-.356.063C153.882-468.731,153.757-468.542,153.819-468.5Zm-2.7,0c-.461.021-.168.67.335.733.482.063,1.571-.754,1.383-1.048a1.219,1.219,0,0,0-.775.084A9.631,9.631,0,0,1,151.117-468.5Zm2.787.775a.449.449,0,0,0,.335.21.207.207,0,0,0,.189-.21c0-.126-.147-.21-.335-.21C153.924-467.935,153.84-467.851,153.9-467.725Zm-3.625.482c-.1.5.314.44.44-.084.063-.272.021-.4-.126-.335A.562.562,0,0,0,150.278-467.243Zm5.406.356c0,.1.147.21.314.21s.314-.1.314-.21c0-.126-.147-.21-.314-.21S155.684-467.013,155.684-466.887Zm-7.124,1.278c0,.608.084.8.461.88a.921.921,0,0,0,.566.042c.042-.063-.021-.1-.168-.1-.356,0-.629-.88-.4-1.32a.657.657,0,0,0,.042-.587C148.854-467.076,148.56-466.468,148.56-465.609Zm8.611.985c.063.147.293.084.587-.147.314-.23.44-.482.335-.649-.1-.189-.251-.147-.566.168C157.3-465.022,157.13-464.729,157.172-464.624Zm2.7,3.6a.207.207,0,0,0,.189.21.449.449,0,0,0,.335-.21c.063-.126-.021-.21-.189-.21C160.021-461.23,159.875-461.146,159.875-461.02Zm-12.152-.126a7.194,7.194,0,0,0,.943,1.97,4.018,4.018,0,0,0-.754-2.053C147.806-461.23,147.722-461.188,147.722-461.146Zm-7.962.251c0,.293.063.293.314.084a1.267,1.267,0,0,0,.314-.335c0-.042-.147-.084-.314-.084A.327.327,0,0,0,139.76-460.895Zm21.5.189c.126.335.5.44.5.147a.494.494,0,0,0-.44-.461C161.216-461.02,161.195-460.874,161.258-460.706Zm-21.644.775c.063.168.126.1.126-.126.021-.23-.042-.356-.1-.272A.424.424,0,0,0,139.614-459.931Zm22.775.063c0,.168.084.314.21.314.1,0,.21-.147.21-.314s-.1-.314-.21-.314C162.473-460.182,162.389-460.036,162.389-459.868Zm-.838-.23c0,.063.084.168.21.23.1.063.21.021.21-.084a.229.229,0,0,0-.21-.23C161.635-460.182,161.551-460.141,161.551-460.1Zm-22.67,1.383c-.084.838.1,1.11.335.5.189-.5.147-1.341-.063-1.341C139.048-459.554,138.922-459.177,138.88-458.716Zm8.025-.272c.147.21.566.712.922,1.131.335.4.838.985,1.09,1.3a1.512,1.512,0,0,0,1.006.566c.67,0,.691-.335.021-.5a5.946,5.946,0,0,1-1.676-1.488,6.781,6.781,0,0,0-1.425-1.362C146.717-459.344,146.738-459.2,146.905-458.988Zm15.589.293c-.21.314-.084.377.566.251.314-.063.524-.189.461-.293C163.374-458.988,162.661-458.967,162.494-458.695Zm-11.1.189a1.323,1.323,0,0,0,.587.419c.126,0,.042-.189-.168-.419a1.324,1.324,0,0,0-.587-.419C151.1-458.925,151.179-458.737,151.389-458.506Zm1.55,0c-.21,0-.4.084-.4.21,0,.314.712.251,1.173-.126.356-.293.356-.314.021-.21A3.325,3.325,0,0,1,152.939-458.506Zm1.907.88a3.7,3.7,0,0,0-1.048.859c0,.23,1.969-.8,2.284-1.194C156.543-458.527,155.978-458.359,154.846-457.626Zm-5.343-.461a.531.531,0,0,0,.377.21c.147,0,.126-.084-.063-.21C149.419-458.339,149.336-458.339,149.5-458.087Zm-5.343.168c0,.168.9.671,1.173.671.251,0-.21-.461-.629-.629C144.139-458.108,144.16-458.108,144.16-457.92Zm7.962,1.32c-.23.4-.21.419.189.21.566-.314.754-.65.356-.65A.766.766,0,0,0,152.122-456.6Zm-5.657.482a1.267,1.267,0,0,0,.314.335c.272.23.293.209.189-.084S146.465-456.348,146.465-456.118Zm3.038,1.173c-.063.1-.021.21.084.21a.229.229,0,0,0,.23-.21c0-.126-.042-.21-.084-.21C149.671-455.154,149.566-455.07,149.5-454.944Zm5.762,2.619c-.691.733-.44.8.314.084.335-.335.524-.608.4-.608A1.669,1.669,0,0,0,155.265-452.325Zm-14.5-.063c.147.147.251.168.251.042a.505.505,0,0,0-.147-.356.176.176,0,0,0-.251-.042C140.578-452.681,140.64-452.514,140.766-452.388Zm33.5.691c.461.608.9.67.9.126,0-.419-.251-.608-.9-.629C173.913-452.22,173.913-452.2,174.269-451.7Zm-12.4.147c.168.775.251.922.44.733s-.126-1.4-.377-1.4C161.8-452.22,161.781-451.948,161.865-451.55Zm9.324.608c0,.23.084.356.21.293a.59.59,0,0,0,.21-.44c0-.168-.1-.293-.21-.293C171.273-451.382,171.189-451.194,171.189-450.942Zm4.19.314a.3.3,0,0,0,.314.293c.314,0,.44-.44.189-.691C175.673-451.215,175.379-450.984,175.379-450.628Zm-5.8.608c-.189.524.084.608.356.126.147-.314.147-.44,0-.44C169.806-450.335,169.659-450.188,169.576-450.02Zm-17.16.67c.147.147.545-.147.545-.4,0-.126-.126-.126-.314.042C152.458-449.56,152.374-449.392,152.416-449.35Zm-1.655.272c-.063.1-.042.21.084.21a.489.489,0,0,0,.335-.21c.063-.126.042-.21-.084-.21A.427.427,0,0,0,150.76-449.078Zm13.514.419c0,.1.147.21.314.21s.314-.1.314-.21c0-.126-.147-.21-.314-.21S164.275-448.784,164.275-448.659Zm-13.3.21c-.063.1-.021.21.084.21a.229.229,0,0,0,.23-.21c0-.126-.042-.21-.084-.21C151.138-448.659,151.033-448.575,150.97-448.449Zm-5.762.1a.9.9,0,0,0,.461.314c.126,0,.1-.147-.042-.314a.9.9,0,0,0-.461-.314C145.04-448.659,145.061-448.512,145.208-448.344Zm20.533.314a.21.21,0,0,0,.21.21.225.225,0,0,0,.21-.21.21.21,0,0,0-.21-.21A.2.2,0,0,0,165.741-448.03Zm-24.2.838c.084.251.189.4.251.356.063-.063.042-.314-.042-.566s-.189-.4-.251-.356C141.437-447.695,141.458-447.443,141.541-447.192Zm17.432-.168a5.244,5.244,0,0,1,.272,1.32c.126,1.215.419,1.425,2.284,1.655l1.131.147-.587-.691a16.888,16.888,0,0,0-3.1-2.661C158.869-447.611,158.869-447.485,158.974-447.36ZM145-447.318c0,.147.189.335.419.4.482.126.545-.063.168-.44C145.25-447.695,145-447.674,145-447.318Zm1.362.126a1.816,1.816,0,0,0,1.006.189c.838-.021.838-.042.251-.189C146.7-447.422,146.214-447.422,146.36-447.192Zm6.5.44c-.23.356.021.44.314.084.168-.189.168-.314.042-.314A.455.455,0,0,0,152.856-446.752Zm-11.1,1.928a1.052,1.052,0,0,0,.44.65c.377.147.377.042-.042-.733C141.772-445.662,141.562-445.6,141.751-444.824Zm11,.608c0,.126.147.1.314-.042a.9.9,0,0,0,.314-.461c0-.126-.147-.1-.314.042A.9.9,0,0,0,152.751-444.217Zm-.838-.587c0,.063.084.168.21.23.1.063.21.021.21-.084a.229.229,0,0,0-.21-.23C152-444.887,151.913-444.845,151.913-444.8Zm6.286.65a.327.327,0,0,0,.335.314c.293,0,.293-.063.084-.314a1.266,1.266,0,0,0-.335-.314C158.24-444.468,158.2-444.321,158.2-444.154Zm-14.981-.126a2.183,2.183,0,0,0,.838.314l.629.126-.629-.293C143.322-444.51,142.924-444.552,143.218-444.28Zm14.457,1.383-.629.524.587-.21a10.049,10.049,0,0,0,1.027-.44c.314-.168.461-.168.587.021a.305.305,0,0,0,.419.1c.189-.126.189-.189-.021-.335A1.748,1.748,0,0,0,157.675-442.9Zm-4.211.251c.168.168,1.173-.356,1.173-.608,0-.1-.293-.021-.65.147C153.631-442.918,153.4-442.708,153.463-442.645Zm15.63-.042c0,.587.314.712.5.189.21-.524.147-.712-.189-.712C169.219-443.211,169.094-443.022,169.094-442.687Zm-2.577.377c-.545.21-.985.5-.985.608a3.2,3.2,0,0,1-.629.964c-.524.671-1.215,2.682-.985,2.912a15.023,15.023,0,0,0,1.509-2.137c1.11-1.7,1.509-2.179,1.781-2.1a1.69,1.69,0,0,0,1.55-.65C168.905-443.064,167.9-442.9,166.517-442.31Zm-.524-.314c-.042.147.042.21.251.126.189-.063.335-.23.335-.335C166.579-443.106,166.1-442.939,165.993-442.624Zm-22.419.691c.524.922,1.7,2.074,2.116,2.074.147,0-.063-.293-.44-.65a9.226,9.226,0,0,1-1.215-1.467C143.364-443.064,142.945-443.022,143.574-441.933Zm20.7-.461c0,.251.608.482.88.314.126-.084.1-.21-.063-.314C164.715-442.624,164.275-442.624,164.275-442.394Zm9.408.524a2.276,2.276,0,0,0,1.027.419c.419.063,1.09.189,1.467.251.838.168,2.975-.084,2.975-.356a7.509,7.509,0,0,0-2.368-.189,11.258,11.258,0,0,1-2.661-.21C173.661-442.247,173.41-442.205,173.682-441.87Zm-21.35-.084c0,.1.147.21.314.21s.314-.1.314-.21c0-.126-.147-.21-.314-.21S152.332-442.08,152.332-441.954Zm15.9,1.55a5.5,5.5,0,0,0-.4,1.886,6.965,6.965,0,0,1-.251,1.823c-.21.712-.189.88.147,1.236a1.1,1.1,0,0,1,.23,1.11c-.126.65-.084.733.4.817a1.2,1.2,0,0,0,.608.021,3.694,3.694,0,0,0-.21-1.048,11.247,11.247,0,0,1-.063-4.672c.461-2.179.482-2.368.21-2.2A2.917,2.917,0,0,0,168.235-440.4Zm11.649-.712c-.063.1.021.21.189.21.189,0,.335.1.335.23,0,.1.293.314.629.44a1.716,1.716,0,0,1,.859.608c.251.482.608.524.608.084,0-.189-.293-.5-.65-.691a10.237,10.237,0,0,1-1.11-.712C180.219-441.367,180.052-441.409,179.884-441.116Zm-24.389,1.55c-.293.293-.44.545-.335.545a9.808,9.808,0,0,0,2.41-2.137C157.57-441.388,156.25-440.382,155.5-439.565Zm.5-1.131c-.063.1-.021.21.084.21a.23.23,0,0,0,.23-.21c0-.126-.042-.21-.084-.21C156.166-440.906,156.061-440.822,156-440.7Zm-2.1,1.7a16.341,16.341,0,0,1-3.771,2.682l-.838.482,1.048-.964c1.236-1.152,1.09-1.236-.44-.23-1.215.817-1.571.88-1.97.419-.21-.272-.189-.4.126-.775l.4-.44-.691.377c-.629.377-.922.943-.461.943.1,0,.147.147.084.314s.1.524.419.817l.524.545,2.053-1.194c1.907-1.09,4.672-3.269,4.672-3.667C155.056-440.047,154.7-439.838,153.9-439Zm-4.421.712c-.21.168-.293.314-.168.314a1.706,1.706,0,0,0,.629-.314c.21-.168.293-.314.168-.314A1.706,1.706,0,0,0,149.482-438.287Zm31.093,3.1c-1.55,1.509-2.158,2.64-1.613,3,.293.168.608-.314.461-.691a6.594,6.594,0,0,1,1.509-2.053,8.983,8.983,0,0,0,1.425-1.781A10.222,10.222,0,0,0,180.576-435.186Zm-4.358.8c-1.488.419-1.53.482-1.362,2.179a4.532,4.532,0,0,0,.356,1.676c.147.147.189-.21.1-1.152-.126-1.55.084-2.1.8-2.1.524,0,1.781-.629,1.781-.9,0-.1-.168-.126-.377-.063C177.328-434.7,176.741-434.537,176.217-434.39Zm3.562,1.865c0,.1.042.21.084.21.063,0,.168-.1.23-.21.063-.126.021-.21-.084-.21A.215.215,0,0,0,179.779-432.525Zm-29.92.9c-.817.21-.943.21-1.194-.147-.272-.356-.293-.356-.44.168a3.848,3.848,0,0,0,.126,1.488c.21.754.21,1.006,0,1.257-.21.272-.21.4.042.691a2.053,2.053,0,0,1,.44.88,9.75,9.75,0,0,0,.377,1.215c.21.5.23.733.042.838-.147.1.126.545.8,1.3,1.11,1.257,1.3,1.11.629-.566-.65-1.676-.964-3.394-.691-3.834a1.043,1.043,0,0,0-.021-1.027c-.21-.587-.189-.691.4-1.32.335-.377.775-.88.943-1.09.272-.377.251-.4-.126-.251C150.949-431.939,150.341-431.75,149.859-431.624Zm24.074,3.206c-.272,1.194-.272,1.194.314,1.676.754.587.838.356.419-.9-.293-.88-.314-1.006-.021-1.173a.763.763,0,0,0,.168-1.048C174.541-430.158,174.185-429.571,173.934-428.419Zm-15.777-.964c-.314,0-1.278,1.257-1.11,1.425.042.042.335-.1.67-.335a3.089,3.089,0,0,1,1.006-.482c.293-.063.44-.293.482-.712.084-.608.063-.608-.314-.251A1.561,1.561,0,0,1,158.157-429.382Zm.587,1.09a4.73,4.73,0,0,0-.44,1.006l-.147.524.65-.608c.629-.587.88-1.383.44-1.383C159.141-428.754,158.911-428.544,158.743-428.293Zm-.817,2.514c-.23.293-.335.65-.251.775.21.356.65-.063.922-.838S158.534-426.6,157.926-425.779Zm13.368.189a.716.716,0,0,0,.084.671c.168.168.23.147.23-.1a2.521,2.521,0,0,1,.126-.67c.063-.189.021-.335-.084-.335C171.524-426.03,171.357-425.841,171.294-425.59Zm-13.556,1.446c-.23.377-.293.377-.629.063-.356-.335-.419-.293-.985.377-.335.4-.566.754-.524.8a7.068,7.068,0,0,0,2.64-.9c.23-.335.21-.754-.042-.754C158.094-424.563,157.884-424.375,157.738-424.144Zm-1.425,1.781a5.809,5.809,0,0,1-1.634.943,5.777,5.777,0,0,0-1.55.733,3.115,3.115,0,0,1-3.269.1c-.356-.23-.67-.335-.67-.251s-.21-.189-.44-.587l-.44-.712-.314.9a2.071,2.071,0,0,0,.482,2.347c.4.314.817.042.482-.356-.189-.23-.168-.293.1-.293.21,0,.314.084.23.189a.237.237,0,0,0,.084.314c.314.21,3.31-.629,4.128-1.152.44-.272,1.446-.8,2.263-1.194,1.467-.691,1.8-.964,1.8-1.467C157.57-423.264,157.235-423.139,156.313-422.363Zm16.657,3.478c-.23.356.021.44.314.084.168-.189.168-.314.042-.314A.455.455,0,0,0,172.97-418.885Zm-16.95,1.613a4.72,4.72,0,0,0-.23,2.451c.147,1.488.44,1.928.65,1.006.063-.314.189-.88.272-1.215.189-.754.042-3.771-.168-3.52A7.1,7.1,0,0,0,156.019-417.272Zm15.9-.712c-.4.377-.5,2.032-.168,2.158.419.147.775-1.006.461-1.509-.168-.293-.189-.419,0-.482.23-.084.335-.461.1-.461A.913.913,0,0,0,171.922-417.984Zm-16.448,5.825c0,.608-.461,1.844-.691,1.844a2.518,2.518,0,0,1-.587-.21c-.482-.272-.482-.335,0,.922.335.922.419.985.608.629.817-1.55,1.425-4.086.88-3.75C155.558-412.662,155.475-412.39,155.475-412.16Zm.8,7.543c.23.5.461,1.048.524,1.215.063.189.126.126.126-.189a5.67,5.67,0,0,0-.461-1.718c-.356-.922-.482-1.09-.524-.712A3.594,3.594,0,0,0,156.271-404.617Zm-3.73-.65c0,.126.084.147.21.084a.489.489,0,0,0,.21-.335c0-.126-.1-.147-.21-.084A.427.427,0,0,0,152.541-405.266Zm.042,1.907a.723.723,0,0,0,.5.356c.335.063.356.021.1-.272C152.856-403.674,152.478-403.716,152.583-403.36Zm3.6,10.225c.168.4.419,1.048.545,1.4.251.691.629.943.629.419a3.833,3.833,0,0,0-.419-1.048,6.815,6.815,0,0,1-.566-1.781c-.126-.964-.147-.964-.314-.356A2.093,2.093,0,0,0,156.187-393.135Zm.9,2.64c-.063.063.084.461.335.88.419.691.461.733.524.314C158.052-390.055,157.486-390.872,157.088-390.495Zm-3.29,7.04c0,.4.042.419.21.168.272-.4.272-.629,0-.629C153.882-383.916,153.8-383.706,153.8-383.455Zm.419.67a.49.49,0,0,0,.335.419c.44.168.545.063.377-.377C154.762-383.162,154.218-383.183,154.218-382.784Zm2.64.251c-.168.44-.168.44.293.566.293.084.419,0,.419-.251C157.57-382.889,157.067-383.1,156.858-382.533Zm-1.592-.042a.784.784,0,0,0,.943.671.437.437,0,0,0,.042-.817C155.747-382.931,155.265-382.868,155.265-382.575Z" transform="translate(201 76)" fill="#fff"/>
    <text id="KHALID" transform="translate(123.36 -368.809)" fill="#fff" font-size="30" font-family="Impact"><tspan x="0" y="0">KHALID</tspan></text>
    <text id="SHOUQAL" transform="translate(219.36 -368.809)" fill="#fff" font-size="30" font-family="Impact"><tspan x="0" y="0">SHOUQAL</tspan></text>
    <text id="OFFICIAL" transform="translate(122.36 -307.809)" fill="#fff" font-size="61" font-family="Impact"><tspan x="0" y="0">OFFICIAL</tspan></text>
  </g>
</svg>
