<svg xmlns="http://www.w3.org/2000/svg" width="149.8" height="144.29" viewBox="0 0 149.8 144.29">
  <g id="Group_2" data-name="Group 2" transform="translate(-576 -140.123)">
    <g id="Group_1" data-name="Group 1" transform="translate(74 10)">
      <path id="Path_81" data-name="Path 81" d="M1167.6-244.4c-.3.8-.6,7.4-.6,14.6v13l-4.6,5.1a62.023,62.023,0,0,0-5.9,7.6c-1.2,2.5-18.5,76.5-18.5,79.5,0,2.4,8.7,7.3,23.4,13.2,14.3,5.7,42,11.5,44.2,9.1.6-.6,2.4-8.3,3.9-17,1.6-8.6,3-15.5,3.2-15.4.2.2,1.6,7.5,3.2,16.1,1.6,8.7,3.3,16.2,3.8,16.7,1.6,1.6,24.8-3.2,39.6-8.2,8.2-2.8,23.6-10.1,26.4-12.5l2.1-1.9-8.4-36.5c-4.6-20.1-8.9-38.3-9.6-40.4-.7-2.2-3.6-6.5-6.5-9.6l-5.2-5.7-.3-14.4-.3-14.4-44.6-.3C1172.8-246,1168.2-245.9,1167.6-244.4ZM1253-230c0,11.3-.1,12-2,12-1.8,0-2-.7-2-5.8,0-6.4-1-8.8-3.4-7.9-1.2.5-1.6,2.1-1.6,7.2,0,6.3-.1,6.5-2.5,6.5s-2.5-.3-2.5-5.8c0-6.4-1-8.8-3.4-7.9-1.2.5-1.6,2.1-1.6,7.2v6.5h-7v-8.9c0-7.2-.3-9-1.6-9.5-3-1.2-24.9-.7-26.2.6-.7.7-1.2,4.4-1.2,9.5v8.3h-2.9c-2.8,0-2.9-.1-3.3-6.5-.4-7-.9-8.1-3.3-7.2-1.1.5-1.5,2.2-1.5,7.2v6.5h-3c-2.9,0-2.9,0-3.2-6.8-.2-5.2-.6-6.7-1.8-6.7s-1.6,1.5-1.8,6.7c-.3,6.5-.4,6.8-2.7,6.8H1172v-24h81Zm-31,5v7h-19v-14h19Zm38.4,17.1c2.6,2.8,4.9,6.1,5.2,7.3,4.4,17.5,17.1,74.3,16.7,74.9-.8,1.4-15.7,8.4-23.5,11.1-9.2,3.1-26.8,7.4-32.3,7.8-3.8.3-4,.1-4.3-2.7l-.3-3,9.7-1.9a161.013,161.013,0,0,0,35-11.2c7.8-3.7,10.3-5.9,8.7-7.5-.7-.7-3.6.2-9.4,2.9a180.057,180.057,0,0,1-17.9,7c-10.4,3.3-26,6.6-26.9,5.6-.3-.3-1.7-6.9-3.2-14.7l-2.5-14.2,4.5-.3c5.4-.4,7.7-1.8,6-3.8-.9-1-4.1-1.4-12.8-1.4-12.1,0-14.8.7-13.8,3.4.5,1.2,2,1.6,5.8,1.6,4.8,0,5.1.1,4.6,2.2-.3,1.3-1.6,7.9-2.8,14.8s-2.3,12.7-2.5,12.9c-.6.7-21.1-4.2-29.9-7.1-4.9-1.7-12-4.6-15.7-6.4-8-4-9-4.1-8.6-1.2.6,4.2,22.5,13,42.7,17.2l10.6,2.3-.3,2.9a17.856,17.856,0,0,1-.7,3.3c-.6.6-13.4-1.8-24-4.5-15.7-4-35.5-12.9-35.5-16,0-1.4,14.1-64,16.1-71.8.7-2.4,3-6,6.1-9.2l5.1-5.4h85.5Z" transform="translate(-636 376)"/>
      <path id="Path_82" data-name="Path 82" d="M1217-196.4c0,1.7,3.5,3.2,5.2,2.3,2.4-1.3,2.3.5-.2,3.9-2.1,2.9-5.5,17.4-4.6,19.8.6,1.5,5.6,2,5.6.5a1.655,1.655,0,0,0-1-1.3c-1.5-.5,1.7-15.7,4.1-19a12.631,12.631,0,0,0,1.9-3.7c0-1.8-3.8-3.3-5.8-2.2a3.628,3.628,0,0,1-3.5,0C1217.8-196.7,1217-196.8,1217-196.4Z" transform="translate(-636 376)"/>
      <path id="Path_83" data-name="Path 83" d="M1169.5-184.8c-3,13.3-3.2,15.8-1,15.8,1.9,0,3.1-2.5,3.8-8.2.4-2.7.9-5.9,1.3-7.3.5-2.1.3-2.5-1.5-2.5A2.649,2.649,0,0,0,1169.5-184.8Z" transform="translate(-636 376)"/>
      <path id="Path_84" data-name="Path 84" d="M1178-181.3c-1.7,8.7-2,9.3-4.2,9.3-2.7,0-1.8,2.4,1.1,2.8,3.4.5,4.8-1.4,6.5-8.8,2-8.7,2-9-.3-9C1179.5-187,1178.9-185.9,1178-181.3Z" transform="translate(-636 376)"/>
      <path id="Path_85" data-name="Path 85" d="M1186-185c-2.2,2.2-2.4,2.9-1,5,1,1.7,1.3,1.5,2.6-2.5.6-2,1.7-3.1,3.2-3.3,2-.3,2.2.1,2.2,4.7,0,2.7-.5,6.2-1.2,7.6-1.2,2.7-4.8,3.5-4.8.9,0-.8-.4-1.2-1-.9-1.9,1.2-1,3.5,1.5,4.1,6.7,1.7,13.8-11.2,8.9-16C1194.2-187.7,1188.4-187.4,1186-185Z" transform="translate(-636 376)"/>
      <path id="Path_86" data-name="Path 86" d="M1202.2-185.8c-1.5,1.5-1.6,5.4-.1,6.3.6.5.3,1.3-1,2.2-5.2,3.6-.8,9.2,6.2,7.9,4.5-.8,5.2-1.8,6.7-9.1a75.051,75.051,0,0,1,1.8-7.3c.3-1-.2-1.3-1.9-1-1.8.2-2.5,1.1-3.1,4.3-1.8,9.4-2.8,11.6-5.1,11.3-2.8-.4-3.3-3.2-.9-5.6,1.6-1.6,1.7-2.1.5-3.9-1.4-2-.9-5.3.8-5.3.5,0,.9.9.9,2.1s.5,1.9,1.3,1.6a2.5,2.5,0,0,0,1.2-2.3C1209.5-186.9,1204.2-187.8,1202.2-185.8Z" transform="translate(-636 376)"/>
      <path id="Path_87" data-name="Path 87" d="M1228.5-185.8c-.5,1.3-3.5,15.5-3.5,16.4,0,.2.9.4,1.9.4,1.6,0,2.2-1.3,3.5-6.6,1.5-6.9,3.8-10.6,5.5-8.9.6.6.4,3.4-.4,7.5-1.8,8.3-1.8,8,.4,8,1.6,0,2.3-1.3,3.6-7.5,1-4.1,1.4-8.2,1.1-9-.7-1.8-5.7-2-7.4-.3-.9.9-1.2.9-1.2,0C1232-187.4,1229.1-187.3,1228.5-185.8Z" transform="translate(-636 376)"/>
      <path id="Path_88" data-name="Path 88" d="M1244.9-184.7c-.7,1.7-.8,3.1-.1,4.2.7,1.3.4,2.3-.9,3.6-3.9,3.9-1.4,7.9,4.8,7.9,4.8,0,7-2.4,8.3-8.8.6-3.1,1.4-6.5,1.6-7.5.4-1.2,0-1.7-1.5-1.7-1.4,0-2.3.8-2.7,2.7-2.8,12.5-3,12.8-5.4,12.8-3.2,0-3.7-2.8-1.1-5.4,1.1-1.1,1.6-2.3,1.1-2.6-1.3-.8-1.3-6.5,0-6.5.6,0,1,.9,1,2.1s.5,1.9,1.3,1.6a2.5,2.5,0,0,0,1.2-2.3c0-1.4-.8-2-3.2-2.2C1246.6-187.1,1245.8-186.7,1244.9-184.7Z" transform="translate(-636 376)"/>
    </g>
  </g>
</svg>
