<svg xmlns="http://www.w3.org/2000/svg" width="135.008" height="158.535" viewBox="0 0 135.008 158.535">
  <g id="Group_1" data-name="Group 1" transform="translate(-417.023 -460.145)">
    <path id="Path_34" data-name="Path 34" d="M192.4-649.8a3.583,3.583,0,0,0,.2,2.2c.7,1.8-.4,2-2.6.6-5.6-3.5-5.2,13,.5,20.5,1.8,2.4,2.4,4.8,2.8,11,.9,13.3,7,31.1,10.2,29.9,1.9-.8,1.9-3.4.1-6-1.9-2.7-4-13.7-3.2-16.9.6-2.4.9-2.5,8.5-2.5,4.3,0,11.2-.3,15.3-.6,7.2-.6,7.6-.6,8.3,1.6,1,3-1.3,14.8-3.7,18.9-1.6,2.9-1.7,3.6-.5,4.8,1.1,1.2,1.6,1.1,3.1-.6,2.1-2.3,4.5-8.6,4.6-11.9a14.3,14.3,0,0,1,1.5-5.2,31,31,0,0,0,2.3-6.7c.7-3.4,1.3-3.9,6.7-6a39.177,39.177,0,0,1,7.1-2.3c.7,0,1.3,2.5,1.6,6.3.6,7.2,2.6,12.2,4.8,12.2,1.6,0,1.8-2.5.6-6.3-.7-2.2-.6-2.2,1.3-1,3.5,2.1,4.6-.2,2.1-4.4a43.522,43.522,0,0,1-3.3-10.8c-1.6-9.5-2.7-10.2-10.9-7.2-7.9,2.8-8.2,2.8-7.4-.3,1-4-1.3-10.6-5-14.3-3-3-3.9-3.4-7.7-3a16.608,16.608,0,0,1-8.4-1.4c-3.5-1.5-6.3-1.8-16.3-1.6C198.3-650.6,192.6-650.2,192.4-649.8Zm28.8,5.4A10.627,10.627,0,0,1,225-641c1.9,3.5,4.6,2.4,4.1-1.8-.2-1.5,1.4-1.6,4-.2,4.3,2.4,6.2,11,3.8,17.9-.9,2.6-1.6,3.1-4.3,3.1a10.215,10.215,0,0,1-5-1.3c-1.7-1.3-1.7-1.5.3-5.2,1.5-2.9,1.8-4.2.9-5.2-1.6-1.9-2.7-1.6-3.8,1.1-2.1,5.6-10,9-19.4,8.4-6.6-.4-10.3-2.3-13-7-1.9-3.2-2.2-11-.3-10.7,3.6.5,5.9-.3,6.4-2.1.4-1.5,1.6-2,5.7-2.3C211.3-646.8,217.9-646.1,221.2-644.4Zm34.2,18.7c-.3.8-3.9,2.6-8,4-6.3,2.2-7.5,2.4-7.2,1.1.2-.9,2.9-2.6,6.3-3.9C253.5-627.2,256.2-627.6,255.4-625.7Zm-26.8,7.6c2.6.7,2.4.9-2.6,1.5a139.414,139.414,0,0,1-17,.4c-11.1-.3-11.5-.4-11.8-2.6-.3-2.1-.1-2.2,2.5-1.5,4.2,1.2,14.5.6,18.4-1,3.1-1.3,3.6-1.3,5.5.5A15.123,15.123,0,0,0,228.6-618.1Z" transform="translate(268 1111)"/>
    <path id="Path_49" data-name="Path 49" d="M206-605c0,1.6.5,2.1,2.3,1.8,1.2-.2,2.2-1,2.2-1.8s-1-1.6-2.2-1.8C206.5-607.1,206-606.6,206-605Z" transform="translate(268 1111)"/>
    <path id="Path_50" data-name="Path 50" d="M222.5-606c-.9,1.5.4,3,2.6,3a1.767,1.767,0,0,0,1.9-2C227-607.1,223.7-607.9,222.5-606Z" transform="translate(268 1111)"/>
    <path id="Path_52" data-name="Path 52" d="M209.1-594.3c-.5,1-1.3,5.4-1.9,9.8-1.2,10.1-5.7,20.6-14.6,34.3-7.5,11.5-6.4,11.1-18.5,5.7l-6.1-2.8.6-5.1c.8-6.5,2.9-11,6.1-13.1,1.4-.9,7.4-2.7,13.5-4a107.336,107.336,0,0,0,11.6-2.9c.3-.4-.1-1.3-.9-2-1.2-1.3-3-1.1-12.7.8-15.5,3.1-19.1,6.1-21.6,17.6-.8,3.6-1.5,6.1-1.5,5.6-.1-.5-.8-.3-1.6.4a2.834,2.834,0,0,0-1,2.9c.3,1.1-1.2,2.7-5.5,5.4-5.7,3.5-7.3,5.8-4.9,7.2.6.4,4.2-1.4,8.2-4,6.7-4.5,7.3-4.7,10.2-3.5,1.6.7,5.6,2.2,8.8,3.4,3.1,1.1,5.7,2.4,5.7,2.7a100.885,100.885,0,0,1-5.6,9.3c-4.1,6.2-5.4,9-4.6,9.8,1.9,1.9,3.6.2,11.1-11.6,4-6.4,7.7-11.6,8.1-11.6a4.835,4.835,0,0,1,2,1.4,11.349,11.349,0,0,0,4.6,2.6c2.5.8,3.4,1.7,3,2.7-.3.8-2.9,6.8-5.7,13.4-8.4,19.6-10.9,22.2-21.6,22.3l-6.8.1-3.2-6.4c-4.2-8.2-4.3-13.8-.6-24.3,2.1-5.8,2.5-8,1.6-8.9a1.965,1.965,0,0,0-2.1-.5c-1.7,1-7.2,17.5-7.2,21.6,0,8,6.2,20.4,11.4,22.9,3.8,1.8,15.1-.1,19.8-3.2,4.2-2.9,5.6-5.4,15.7-28.6,4.7-10.8,9.8-21.1,11.2-22.9l2.5-3.3,2.7,3.8c1.4,2.1,6.3,12.3,10.9,22.8,9.4,21.7,11.7,25.8,15.9,28.4,3.9,2.4,14.2,4.4,17.9,3.6,3.8-.8,7.3-5.1,10-12.2,3.6-9.4,3.6-12.8.1-22.8-3.5-9.9-4.5-11.5-6.3-9.7-1,1-.7,2.9,1.5,9,3.7,10.5,3.6,16.1-.5,24.3-3.2,6.2-3.4,6.4-7.5,6.7-6.7.5-11.9-1.4-15.3-5.6-1.7-2-5.5-9.2-8.5-16-7.4-16.8-7.2-15.8-3.1-17.2a11.349,11.349,0,0,0,4.6-2.6,4.835,4.835,0,0,1,2-1.4c.3,0,3.9,5.2,7.9,11.5,8.4,13.1,9.3,14.1,11.1,12.1,1-1.3.2-3.1-4.4-10.1-3.1-4.7-5.6-8.9-5.6-9.3,0-.6,12.8-6,16.7-7,.6-.2,4.3,1.8,8.3,4.3,3.9,2.5,7.5,4.3,8.1,4,2.2-1.4.5-3.8-5.1-7.3-3.8-2.4-5.8-4.2-5.5-5.1.6-1.5-1.3-4.3-2.4-3.6-.4.2-1.3-2.3-1.9-5.6-1.3-7-4.5-11.9-9.5-14.2-5.2-2.5-22.9-5.7-24.5-4.5-2.4,2,.7,3.6,10.6,5.3,14.6,2.6,18.3,5.8,19.5,16.8.6,5.6,0,6.2-10.5,10.1L247-540l-6.3-9.8c-9.2-13.9-13.6-24-14.8-33.7-1.5-12.3-1.7-12.5-9.3-12.5C211.4-596,209.9-595.6,209.1-594.3ZM214-585c0,5.7-.3,7-1.6,7-1.2,0-1.4-.8-.9-4.8C213-594.1,214-595.1,214-585Zm7.4,1.2c.5,4.8.4,5.8-.9,5.8-1.2,0-1.5-1.4-1.5-7.3C219.1-593.5,220.4-592.7,221.4-583.8ZM214-569.1c0,3.7-.2,3.9-3.7,4.4-2,.4-3.8.5-4,.3-.2-.1.5-2.1,1.5-4.4,1.3-3.1,2.3-4.2,4-4.2C213.7-573,214-572.5,214-569.1Zm11,.2c1.2,2.3,2,4.3,1.8,4.5s-2.1.1-4.1-.3c-3.5-.5-3.7-.7-3.7-4.4C219-574.6,222.2-574.5,225-568.9Zm-11,11.3a9.192,9.192,0,0,1-1.8,4.7l-1.9,2.2-1-2.9c-.6-1.6-1.4-3.7-1.8-4.7-.6-1.4-.1-1.7,2.9-1.7C213.5-560,214-559.7,214-557.6Zm12-1.9c0,1.2-3.5,7.5-4.2,7.5-1.1,0-2.8-3.6-2.8-5.9,0-1.7.6-2.1,3.5-2.1C224.4-560,226-559.8,226-559.5ZM204.8-553c1.1,2.9,1,3-1.8,3-3.7,0-4.5-1.3-2.4-4.5C202.5-557.4,203.4-557.1,204.8-553Zm27.6-1.1c.9,1.6,1.2,3.1.9,3.5-.8.7-6.3.8-6.3.1,0-.9,3-6.5,3.5-6.5A9.387,9.387,0,0,1,232.4-554.1Zm-27.7,8.7c2.1.6,2.2.8.7,3.6-1.2,2.3-2,2.8-3.7,2.2-3.6-1-6.7-3.3-6.7-4.9S200.3-546.6,204.7-545.4Zm33.3.9c0,1.6-3.1,3.9-6.7,4.9-1.8.6-2.5.1-3.7-2.3-1.8-3.4-1.3-3.8,6.2-4C236.9-546,238-545.6,238-544.5Z" transform="translate(268 1111)"/>
    <path id="Path_59" data-name="Path 59" d="M215.2-533.8c-.7.7-1.2,4-1.2,7.5v6.3l-4.5,2.2c-4.3,2.1-5.6,4-3.5,5.3.5.3,3.2-.4,6-1.6l5-2.1,5.6,2.2c4.7,1.9,5.7,2.1,6.5.9,1.1-1.9-.6-3.5-5.6-5.2l-4-1.4-.3-6.6C218.9-533.1,217.4-536,215.2-533.8Z" transform="translate(268 1111)"/>
  </g>
</svg>
