<svg xmlns="http://www.w3.org/2000/svg" width="157.089" height="131" viewBox="0 0 157.089 131">
  <g id="Group_1" data-name="Group 1" transform="translate(-498.034 -178)">
    <path id="Path_67" data-name="Path 67" d="M496-425.6c-1.8,6.8-3.6,13-4.1,13.7-.5.9-2.6-.2-7.6-4.2a114.1,114.1,0,0,0-9.5-7.3c-2.7-1.7-2.8-1.7-3.5,0-.4,1.1.6,5.5,2.5,10.9a80.09,80.09,0,0,1,3.2,10.1c0,.6-3.5,1.7-7.7,2.4-8.2,1.4-11.3,2.5-11.3,4s19.7,14.3,20.9,13.5c2.3-1.4.8-3.4-5.4-7.5a72.916,72.916,0,0,1-6.5-4.5c0-.2,2.6-.9,5.8-1.5a58.238,58.238,0,0,0,7.9-2l2.2-.9-2.5-7.3c-1.3-4-2.3-7.6-2.2-8,.2-.4,3.6,1.8,7.7,4.9,8.7,6.8,8.5,6.9,12-6.6,1.3-5,2.7-9.1,3.1-9.1s1.7,4.5,3,10c1.2,5.5,2.6,10.3,3.1,10.5.5.3,3.4-.1,6.6-.9,3.1-.8,5.9-1.3,6.1-1.1s-.2,2-.9,3.9c-1,2.7-1,3.9-.2,4.7,1.7,1.7,2.7.6,5.8-6.7,3.5-8.2,2.8-8.8-6.8-6.3-4,1-7.4,1.4-7.7.9s-2-7-3.9-14.4c-2.7-11.1-3.6-13.6-5.1-13.6C499.6-438,498.6-435.6,496-425.6Z" transform="translate(111 616)" fill="#e13435"/>
    <path id="Path_71" data-name="Path 71" d="M532.8-400.1c-3,5.5-6.4,7.5-15.4,9-3.9.6-9.8,2.9-16.9,6.5l-11,5.6-24,3c-13.2,1.6-28,3.4-33,4-17.7,2.2-19.7,2.9-36.2,12.7-8.8,5.3-11,7.7-8,8.9.8.3,4.9-1.7,9.3-4.4,13.7-8.5,17.7-10.2,28.2-11.6,5.3-.8,10-1.2,10.5-.9,1.4.8,4.6,8.1,5.7,12.6,1.1,5,.4,10.3-1.4,11-.6.3-4.4.1-8.4-.2-5.3-.5-7.6-.3-8.3.6-1.5,1.7-.2,3.3,2.5,3.3a6.289,6.289,0,0,1,2.9.6c.3.3-6.6,7-15.4,14.7-14.7,13-18.6,17.7-14.5,17.7.7,0,9.5-7.2,19.4-16,17.4-15.4,18.3-16,22.4-16,7.3,0,15.3-2.5,23.2-7.2,7.3-4.4,17.7-9.2,29.7-13.8l5.5-2.1,5.2,2.7c4.9,2.5,5.4,2.6,8.9,1.3,3-1.2,4.5-2.8,7.5-8.1,3.4-5.9,8.8-11.8,15.8-17.3,7.7-6.1,9.3-13.4,4.1-18.6-1.6-1.6-3.5-2.9-4.3-2.9C536.1-405,534.3-402.8,532.8-400.1Zm6.8,3.7c.8,3.3-1.5,6.5-8.9,12.3l-5.6,4.4-3.9-3.5-4-3.6,3.7-.5c6.2-.8,10.9-3.4,13.8-7.6C538-399.6,538.7-399.9,539.6-396.4Zm-23.4,14.8c4.3,3.3,6.7,6.6,4.9,6.6a39.08,39.08,0,0,1-6.5-2.5,31.714,31.714,0,0,0-7.1-2.5c-2.7,0-2.5-1.9.2-3.4,3.7-2,3.4-2.1,8.5,1.8Zm-9.1,5.8c4.4,1.3,4.9,2.3,1.7,3.4a17.171,17.171,0,0,0-5,2.6c-2.7,1.9-2.7,1.9-3.9-.4-.7-1.3-1.9-3.3-2.7-4.6-1.4-2.1-1.3-2.2,2.3-2.2a28.665,28.665,0,0,1,7.6,1.2Zm-12.8,5c2.4,3.9,2.4,4.4,1,5.5a6.362,6.362,0,0,1-2.4,1.3c-1.1,0-5.9-9.1-5.3-10.1,1.3-2.2,4.3-.7,6.7,3.3Zm-10,2c3.1,4.8,3.1,7.2.1,7.6-1.5.2-2.9-.9-4.9-3.8-1.6-2.3-3.7-4.6-4.7-5.1-2.7-1.5-1.2-2.9,3-2.9,3.3,0,4.1.5,6.5,4.2Zm-19,.5c1.7,3.4,3.1,10.6,2,10.2a69,69,0,0,1-6.1-6c-5.5-5.9-5.5-6.7,0-6.8,2-.1,3.1.6,4.1,2.6Zm51.6.5c-3,5.8-6.4,7.2-10.4,4.2-2-1.5-2-1.5,0-2.7,2.3-1.4,8.4-3.5,10.3-3.6,1-.1,1,.4.1,2.1Zm-65.7,3.5c2.7,6.2,2.9,17,.2,19-3.8,2.7-4.9,1.7-4.6-4.1.3-4-.3-7-2.2-11.8-1.4-3.5-2.6-6.8-2.6-7.1,0-.4,1.6-.7,3.6-.7,3.2,0,3.7.4,5.6,4.7Zm26.8,5.1c0,.9-5,3.6-5.5,3a54.014,54.014,0,0,1-.8-5.8l-.6-5.5,3.4,3.7c1.9,2.1,3.5,4.2,3.5,4.6Zm-14,5.4c.8,1.3.4,2.1-2.1,3.8-1.6,1.2-3.2,2.1-3.3,1.9a39.479,39.479,0,0,1-.8-7.2l-.4-6.9,2.8,3.4a38.678,38.678,0,0,1,3.8,5Z" transform="translate(111 616)" fill="#e13435"/>
  </g>
</svg>
