<svg xmlns="http://www.w3.org/2000/svg" width="159.617" height="154.623" viewBox="0 0 159.617 154.623">
  <g id="Group_1" data-name="Group 1" transform="translate(-496.364 -166.094)">
    <path id="Path_65" data-name="Path 65" d="M1011.9-441.5c-3.5,4.6-6.8,8.4-7.2,8.5-.4,0-3.8-2-7.5-4.5-9.9-6.6-10.3-6.4-8.9,5.4,1,8.3,2.2,10.8,4.3,9.1.9-.8,1.1-2.8.7-6.7l-.6-5.6,6.2,4.2c7.2,4.9,6.7,5,13.9-4.4l4.7-6,1,9.5,1,9.5h8.3c7.6,0,9.6.5,7.3,1.9a61.264,61.264,0,0,0-5.1,5.6l-4.1,4.9,4.6,5,4.6,4.9-7.5.7c-7.5.7-11,2.5-8.9,4.6,1.2,1.2,20.8-1,23.1-2.7,1.5-1.1,1.1-1.9-4.1-6.9l-5.8-5.6,3.9-4.7a74.811,74.811,0,0,1,6.1-6.6c2.2-2,2.8-5.2,1.1-5.8-.5-.2-4.9,0-9.7.3-4.9.3-9.1.4-9.4.2-.4-.1-1-4.8-1.4-10.4a104.112,104.112,0,0,0-1.2-11.6C1020.2-451.4,1018.1-449.8,1011.9-441.5Z" transform="translate(-388 616)"/>
    <path id="Path_70" data-name="Path 70" d="M974.2-415.9c-9.7,1.1-20.6,3.8-40.7,9.9-9.1,2.7-17.2,5-18,5-1.7,0-19.1,9.4-21.7,11.7-3,2.7-10,17.3-9.4,19.6.3,1.2,3.3,5.4,6.6,9.4,4.8,5.6,6.9,7.3,9.3,7.7,1.8.2,6.7.9,11,1.6,9.3,1.4,10.2,1,16.5-7.2,4.3-5.7,6.3-12.8,4.3-15.7-1.6-2.5-4.1-.5-4.1,3.4,0,4.1-1,6.4-5.3,11.7-2.4,3-3.7,3.8-6.3,3.8-4.4,0-5.1-1.5-1.4-3,1.8-.8,3-2,3-3.1,0-2.6-2.1-2.4-9,1.1-8.3,4.2-12.9,3.9-8-.5,2.2-2,2.7-5.5.8-5.5-.6,0-2.2,1-3.5,2.2-1.8,1.7-2.6,1.9-3.6.9-.9-.9-.7-2,1-5,1.8-3.1,2-4.1,1-4.9-1.5-1.3-2.7-.6-5,2.7-1.5,2.3-1.7,2.3-2.4.6-.4-1.3.6-4.3,3.3-9.3,3.8-7.2,4.1-7.6,12.8-12.3l9-5,3.5,2.9a28.621,28.621,0,0,1,5.9,7.3c2,3.9,2.1,4.5.7,5.5-1.8,1.4-2,4.4-.2,4.4a23.055,23.055,0,0,0,5.3-1.9c5.1-2.5,16.9-4.9,27.9-5.7l8.8-.7-2.3,3c-2.2,3.1-2.1,5.3.4,5.3.7,0,2.6-1.9,4.2-4.1,3-4.4,11.7-12,16.6-14.5,1.5-.8,2.8-2.1,2.8-2.9,0-3.8-4.2-2.4-12.8,4.5l-5.2,4v-6.2a40.9,40.9,0,0,0-1.5-10.3c-.8-2.2-1.1-4.3-.7-4.7s8.8-1.3,18.5-1.9c23.7-1.4,23.1-1.8,22.4,13-.6,13.1-3.4,22-10.7,33.4-4.6,7.3-5.6,10.7-3.1,10.7,1.2,0,6-6.2,9.3-12,5.9-10.7,9.8-24.6,9.8-35.8,0-7.3-1.9-11.8-5.6-13.2C1005.4-417.2,984.5-417.1,974.2-415.9Zm-10.3,10.4c1.4,2.8,2.2,14.8,1.1,15.8a28.7,28.7,0,0,1-4.9,1.1l-4.3.7.7-9.8c.4-5.4.9-10.2,1.2-10.6C958.8-410.1,962.6-408.4,963.9-405.5ZM952-400.3v6.8l-3.9-4.5c-2.1-2.5-3.9-5-3.9-5.5-.2-.9,4.7-3.2,7.1-3.4C951.7-407,952-404,952-400.3Zm-14.7,2.5c.6,4.8.3,5.6-1.5,4a37.946,37.946,0,0,0-6.3-3l-5-2,5-1.5C936.6-402.4,936.7-402.4,937.3-397.8Zm10.7,6.9c2.2,3,1.8,3.9-2.2,3.9-2,0-2.8-.5-2.8-1.8,0-.9-.3-3.5-.6-5.7l-.6-4,2.1,2.5C945.1-394.6,946.9-392.3,948-390.9Zm-15.1.7c5.3,3.2,6,4.7,2.7,5.6-1.3.3-3.1.9-4,1.2-1.1.4-1.9-.2-2.6-2.1a30.064,30.064,0,0,0-3.2-5.7l-2.1-3,2.4.7A44.58,44.58,0,0,1,932.9-390.2Z" transform="translate(-388 616)"/>
    <path id="Path_73" data-name="Path 73" d="M955.3-371.3a2.4,2.4,0,0,0-1.3,2.1c0,.9-1.7,2.8-3.8,4.1-7.7,5-12.5,9.8-17.9,17.8-5,7.6-13.3,16.3-15.5,16.3-1.7,0-7-4.5-8.9-7.7-2-3.3-4.2-4.2-5.4-2.3-.8,1.4,1.2,4.9,5.3,9.2,3.9,4.1,4.1,3.9-4,6.3-2.4.7-4.3,1.8-4.3,2.6,0,2.3,7.4,1.5,13.9-1.4,9.7-4.4,15.1-9.1,21-18.2,6.2-9.2,14.3-17,22.1-21.1l5.2-2.8,5.8,2.8a60.5,60.5,0,0,1,11.8,8.6l6.1,5.7-2.8,4.4c-1.6,2.4-5.3,7.1-8.2,10.6-7,8.2-8.9,12.2-12.5,26-2.5,9.4-2.8,11.7-1.7,12.4,2.1,1.3,3.4-1,5.7-10.6,3-12.1,5.7-17.7,12.9-26.2,3.3-4,6.5-8,7.1-9,.9-1.6,1.2-1.6,2.1-.3,1.5,2.3,4,14.2,4.7,22.5.5,6.4.9,7.5,2.4,7.5,1.7,0,1.9-.8,1.9-6.3a69.821,69.821,0,0,0-1.6-13.2c-2.9-13-3.1-12.6,2.4-6.8a41.562,41.562,0,0,1,7.3,10.7c2.1,5.2,4,6.9,5.4,4.7.9-1.6-3-10.7-6.9-15.9a54.071,54.071,0,0,0-9.3-9.2,57.984,57.984,0,0,1-8.1-7.2c-2.9-3.5-13.7-11.3-18.5-13.3C963.2-370.4,956.8-371.8,955.3-371.3Z" transform="translate(-388 616)"/>
    <path id="Path_74" data-name="Path 74" d="M917.9-310.3c-1.3,3.6-.3,10.6,2,13.4,2.3,2.9,4.5,1.7,3.5-2a60.4,60.4,0,0,1-1.3-8C921.4-313,919.5-314.6,917.9-310.3Z" transform="translate(-388 616)"/>
  </g>
</svg>
