<svg xmlns="http://www.w3.org/2000/svg" width="159.82" height="156.853" viewBox="0 0 159.82 156.853">
  <g id="Group_1" data-name="Group 1" transform="translate(-496.18 -234.14)">
    <path id="Path_36" data-name="Path 36" d="M990.5-648.7a20.865,20.865,0,0,0-5.4,4.1c-2.4,2.5-2.4,2.7-.8,4.4,1.7,1.6,1.9,1.5,4-1,3.2-3.8,6.4-5.1,10.9-4.4,5.6.9,8.8,2.8,15.7,9.2,17.2,15.9,28.8,46.6,24,63.7-1.4,5.2-5.7,9.7-9.9,10.6-2.6.5-3.5,1.2-3.5,2.6,0,1.7.6,1.9,3.5,1.7,5.6-.6,9.3-3.2,12.3-9.1,2.4-4.8,2.7-6.6,2.7-14.6,0-24.5-14.4-51.8-33.9-64.3C1003.9-649.8,995.6-651,990.5-648.7Z" transform="translate(-388 884)" fill="#e13435"/>
    <path id="Path_41" data-name="Path 41" d="M953.1-643.7c-1.4,1.7,0,3.6,2.9,3.9,1.9.2,2.5-.2,2.5-1.6C958.5-643.7,954.6-645.4,953.1-643.7Z" transform="translate(-388 884)" fill="#e13435"/>
    <path id="Path_42" data-name="Path 42" d="M963.3-639.5a3.071,3.071,0,0,0-.1,2.1c.3.2,6,2.1,12.7,4.1,10.3,3.1,12.4,3.5,13.1,2.3.5-.8.6-1.8.2-2.2-.7-.7-22.7-7.8-24.3-7.8C964.4-641,963.7-640.3,963.3-639.5Z" transform="translate(-388 884)" fill="#e13435"/>
    <path id="Path_43" data-name="Path 43" d="M930.4-632.4c-1.2.8-6.7,1.9-13.4,2.5-18,1.7-25.5,5.2-29.2,13.6-1.5,3.5-1.7,4.7-.8,5.8,1.6,1.9,2.7,1.1,4.6-3.3,2.9-7.2,8.9-10,23.9-11.3,6-.5,11.7-1.2,12.7-1.5,1.4-.4,1.7,0,1.6,1.8-.3,2.1.1,2.3,4.8,2.3h5.2l-1.9,3.6c-2.5,5-9.1,10.4-14.4,11.9-3.9,1.1-15.4,1-23-.2-1.4-.2-2,.3-2,1.7,0,1.6,1,2.2,5.5,3,4.3.9,5.6,1.5,5.8,3.1.2,1.7-.2,2-3,1.6a8.059,8.059,0,0,0-6.1,1.8c-2.9,2.3-3.4,5.4-1.8,12.2.7,3.1.5,4.2-1.8,7.4-2.1,3-2.6,4.6-2.4,9.3.1,3.1.2,8.6.3,12.3.1,5.3.4,6.8,1.6,6.8a2.429,2.429,0,0,0,2-1.8,36.05,36.05,0,0,1,1.6-3.9c.7-1.5.7-3.1-.1-5.4a30.278,30.278,0,0,1-1.1-8c0-8.6,7.8-14.9,18.4-14.9,4.4,0,5.6-.3,5.6-1.5,0-3.7-10.1-4.3-16.3-1-3.2,1.6-3.5,1.2-3.9-4.5-.3-3.2,0-3.5,2.5-3.8,1.5-.2,2.8.1,2.8.7.1.6.2,1.7.3,2.3,0,.7,1.1,1.4,2.2,1.6,1.8.3,2.3-.3,2.8-3.5,1.6-9.4,1.2-8.8,7.4-10.1a49.154,49.154,0,0,0,8.6-2.7c3.9-2.1,5.3-1.4,6.5,3.1,1,3.5.5,9.4-.8,9.4a26.163,26.163,0,0,1-4.5-3c-2.9-2.2-4.3-2.7-5.2-1.9a2.1,2.1,0,0,0-.8,2.2c.6,1.6,10.5,8.7,12,8.7s4.4-7.2,4.4-11a29.4,29.4,0,0,0-2-8.1l-1.9-5.2,2.4-2.8c2.1-2.6,6.5-12.6,6.5-14.9,0-2-2.1-2-5.9,0-5.1,2.6-5.3,2.5-5.1-.8C935.4-634.5,934.5-635.3,930.4-632.4Z" transform="translate(-388 884)" fill="#e13435"/>
    <path id="Path_44" data-name="Path 44" d="M998.2-631.9c-2.5,1-5.7,7.3-4.8,9.6,1,2.5,3.9,1,4.8-2.5,1-3.9,3.3-4.2,7.4-1,5.5,4.3,8.4,8.3,13.3,17.9,5.5,10.8,8,21.5,6.2,26.2-1,2.5-1.4,2.7-4.6,2.1-1.9-.3-3.5-.2-3.5.2,0,.5-.7,5.4-1.5,10.9-2,13.5-1.9,14.5.5,14.5,1.1,0,2-.3,2-.8,0-.7,1.6-11.2,2.5-17,.5-2.5,1.1-3.2,2.9-3.2,4.3,0,6.1-3.4,6.1-11.4C1029.5-607.3,1009.5-636.4,998.2-631.9Z" transform="translate(-388 884)" fill="#e13435"/>
    <path id="Path_45" data-name="Path 45" d="M960.6-623.5c-.9,2.5,2.8,3.5,13.9,3.5s14.8-1,13.9-3.5c-.5-1.2-3.1-1.5-13.9-1.5S961.1-624.7,960.6-623.5Z" transform="translate(-388 884)" fill="#e13435"/>
    <path id="Path_46" data-name="Path 46" d="M981.5-613.4c-8.3,5-10.1,6.9-11.5,12-.7,2.4-1.8,4.8-2.4,5.3s-10.3,4.4-21.6,8.6c-22.2,8.3-28.4,11.3-32.5,15.5-2.3,2.4-2.4,2.8-1.1,4,1.3,1,2.1.8,4.7-1.4A39.461,39.461,0,0,1,924-574c4.6-2.4,23.1-9.3,23.4-8.8.1.1.7,3,1.4,6.3a40.92,40.92,0,0,0,4,10.5l2.8,4.5-31,16.7c-17.3,9.2-31.1,17.2-31.1,17.9a1.9,1.9,0,0,0,1.6,1.7c.9.2,21.1-10.1,44.8-22.8,37.6-20,43.8-23,47.6-23,3.1,0,6.5-1.1,11.7-3.8,10.1-5.2,18.8-10.9,19.5-12.8.6-1.7-2.4-12.1-3.8-13a12.164,12.164,0,0,1-2.4-4c-.8-1.9-1.9-3.4-2.4-3.4-.6,0-1.1-.8-1.1-1.8-.1-4.1-3.7-5.7-16.5-6.8C988.1-617,986.8-616.7,981.5-613.4Zm13.5,1.2c0,1.7-4.9,3.2-7.2,2.3l-2.3-.9,2.5-1C991.1-613.1,995-613.3,995-612.2Zm9.4,2.1c.4.5-.6,1.8-2.1,2.9-2.3,1.7-2.5,2.2-1.4,3.6,1.2,1.4,1.6,1.4,4.2,0,2.6-1.3,2.9-1.3,2.9,0a3.568,3.568,0,0,1-2,2.6c-2.3,1.2-2.6,3.8-.6,4.6a5.492,5.492,0,0,0,3.6-.6c3.3-1.8,3.8-.2.7,2.3-3.3,2.7-2.3,5.3,1.6,4.3,1.4-.3,2.8-.2,3.1.3.8,1.3-6.3,5.6-7.4,4.5-2.3-2.4-12.3-20.8-11.5-21.1a30.4,30.4,0,0,0,4-2.2c3.5-2.3,4.2-2.4,4.9-1.2Zm-22,4c1.6.6,1.1,1.2-3.3,4-5.1,3.1-5.2,3.1-4.6.9.7-2.2,4.1-5.9,5.4-5.7a13.047,13.047,0,0,1,2.5.8Zm12.5,9.2c2.3,4,4,7.3,3.9,7.5-.4.3-15.8-9-15.8-9.6,0-.3,1.7-1.5,3.8-2.6,2-1.2,3.8-2.2,3.9-2.3a71.635,71.635,0,0,1,4.2,7Zm-12,10.6c2.7,4.9,5,9.2,5,9.8.1,1.8-6.4.4-8.3-1.8-2.6-3.1-6.6-11.3-6.6-13.6,0-1.9,1.2-2.9,3.7-3,.6-.1,3.4,3.8,6.2,8.6Zm13.4,1.1a43.725,43.725,0,0,1,5.7,3.8,21.532,21.532,0,0,1-4.2,2.5c-3.3,1.7-4.3,1.8-4.9.7-.5-.7-2.5-4.2-4.6-7.8l-3.7-6.5,3,1.9c1.6,1.1,5.5,3.5,8.7,5.4Zm-25.8-.1a57.644,57.644,0,0,0,5,8.9c2.5,3.2,2.5,3.3.4,3.9a4.228,4.228,0,0,1-4.1-1.2c-2.2-1.9-9.8-13.1-9.8-14.4,0-.4,1.2-1.2,2.8-1.7,1.5-.6,2.8-1.1,2.9-1.1a60.346,60.346,0,0,1,2.8,5.6Zm-13.5,8c-.1,7.8-.2,8.6-1.5,6.9-1.8-2.4-4-11.9-3.2-14A3.112,3.112,0,0,1,955-586c1.9,0,2,.6,2,8.7Zm8.4,3.3c2.1,2.8,3.7,5.2,3.5,5.4a45.572,45.572,0,0,1-7.4,3.6c-.3,0-.5-3.2-.5-7,0-3.9.1-7,.3-7a49.1,49.1,0,0,1,4.1,5Z" transform="translate(-388 884)" fill="#e13435"/>
    <path id="Path_53" data-name="Path 53" d="M1002.3-566.8c-11.8,14.2-13.5,16.6-12.8,17.7,1.5,2.4,3.7.5,13-11,8.8-10.8,9.7-12.2,8.3-13.5C1009.4-575,1008.6-574.3,1002.3-566.8Z" transform="translate(-388 884)" fill="#e13435"/>
    <path id="Path_55" data-name="Path 55" d="M919.8-554.6c-11.9,6.1-22.2,11.6-22.7,12.1a1.943,1.943,0,0,0-.1,2.5c.8,1.2,5-.5,25-10.5,17-8.5,24-12.4,23.8-13.5a2.444,2.444,0,0,0-2.3-1.6C942.4-565.7,931.7-560.7,919.8-554.6Z" transform="translate(-388 884)" fill="#e13435"/>
    <path id="Path_57" data-name="Path 57" d="M1012.5-547c-.9,2.8,1.3,5.4,3.1,3.9a4.89,4.89,0,0,0,1.4-3.5C1017-549.7,1013.4-549.9,1012.5-547Z" transform="translate(-388 884)" fill="#e13435"/>
    <path id="Path_58" data-name="Path 58" d="M945.6-544.2c-.3.5.1,3,.9,5.7a41.843,41.843,0,0,1,1.5,10.2c0,6.6-1.4,8-10.8,10.9-4.2,1.3-6.7,2.6-6.7,3.5,0,2.2,4.7,2.2,10.6,0a38.516,38.516,0,0,1,6.2-2.1c1.6,0,.5,9.8-1.8,15.5-2.4,5.9-2.2,8.4.8,7.2,2.6-1,6-11.6,5.8-18-.1-3.1-.1-6.9,0-8.5.4-9-.1-17.2-1.4-20.7C949.4-544.3,946.8-546.2,945.6-544.2Z" transform="translate(-388 884)" fill="#e13435"/>
    <path id="Path_60" data-name="Path 60" d="M885.5-523.6c-2.3,1.7-1.4,4.9,1.2,3.9,3-1,4.2-2.4,3.6-3.9C889.6-525.4,887.9-525.4,885.5-523.6Z" transform="translate(-388 884)" fill="#e13435"/>
  </g>
</svg>
